<?xml version="1.0" encoding="utf-8"?>
<svg width="18px" height="18px" viewBox="0 0 18 18" version="1.1" xmlns:xlink="http://www.w3.org/1999/xlink" xmlns="http://www.w3.org/2000/svg">
  <defs>
    <path d="M14.4784 10.9563C13.8301 10.9563 13.3045 10.4308 13.3045 9.78246L13.3045 8.99989C13.3045 6.6228 11.3774 4.69578 9.00027 4.69578C6.62311 4.69578 4.69605 6.6228 4.69605 8.99989C4.69605 11.377 6.62311 13.304 9.00027 13.304C10.1172 13.304 11.1348 12.8786 11.8998 12.1809C12.5428 12.8718 13.4601 13.304 14.4784 13.304C16.4233 13.304 18 11.7274 18 9.78246L18 8.99989C17.9997 4.81766 15.1184 1.18682 11.0456 0.236371C6.97276 -0.714082 2.78188 1.26636 0.930436 5.01639C-0.921012 8.76642 0.0549371 13.2977 3.286 15.9531C6.30957 18.438 10.5868 18.6797 13.8639 16.5728C14.4092 16.2222 14.5671 15.4959 14.2165 14.9506C13.8659 14.4053 13.1396 14.2474 12.5942 14.598C10.1732 16.1546 7.01135 15.9759 4.77668 14.1393C2.3885 12.1766 1.66715 8.82745 3.03561 6.05569C4.40407 3.28393 7.50167 1.82013 10.512 2.52263C13.5224 3.22514 15.652 5.90881 15.6522 8.99997L15.6522 9.78246C15.6522 10.4308 15.1267 10.9563 14.4784 10.9563ZM9.00156 7.04348C10.0821 7.04348 10.9581 7.9194 10.9581 8.99989C10.9581 10.0804 10.0821 10.9563 9.00156 10.9563C7.92101 10.9563 7.04504 10.0804 7.04504 8.99989C7.04504 7.9194 7.92101 7.04348 9.00156 7.04348Z" id="path_1" />
    <clipPath id="clip_1">
      <use xlink:href="#path_1" clip-rule="evenodd" fill-rule="evenodd" />
    </clipPath>
  </defs>
  <g id="Icon">
    <path d="M14.4784 10.9563C13.8301 10.9563 13.3045 10.4308 13.3045 9.78246L13.3045 8.99989C13.3045 6.6228 11.3774 4.69578 9.00027 4.69578C6.62311 4.69578 4.69605 6.6228 4.69605 8.99989C4.69605 11.377 6.62311 13.304 9.00027 13.304C10.1172 13.304 11.1348 12.8786 11.8998 12.1809C12.5428 12.8718 13.4601 13.304 14.4784 13.304C16.4233 13.304 18 11.7274 18 9.78246L18 8.99989C17.9997 4.81766 15.1184 1.18682 11.0456 0.236371C6.97276 -0.714082 2.78188 1.26636 0.930436 5.01639C-0.921012 8.76642 0.0549371 13.2977 3.286 15.9531C6.30957 18.438 10.5868 18.6797 13.8639 16.5728C14.4092 16.2222 14.5671 15.4959 14.2165 14.9506C13.8659 14.4053 13.1396 14.2474 12.5942 14.598C10.1732 16.1546 7.01135 15.9759 4.77668 14.1393C2.3885 12.1766 1.66715 8.82745 3.03561 6.05569C4.40407 3.28393 7.50167 1.82013 10.512 2.52263C13.5224 3.22514 15.652 5.90881 15.6522 8.99997L15.6522 9.78246C15.6522 10.4308 15.1267 10.9563 14.4784 10.9563ZM9.00156 7.04348C10.0821 7.04348 10.9581 7.9194 10.9581 8.99989C10.9581 10.0804 10.0821 10.9563 9.00156 10.9563C7.92101 10.9563 7.04504 10.0804 7.04504 8.99989C7.04504 7.9194 7.92101 7.04348 9.00156 7.04348Z" id="Shape" fill="#9F9F9F" fill-rule="evenodd" stroke="none" />
    <path d="M14.4784 10.9563C13.8301 10.9563 13.3045 10.4308 13.3045 9.78246L13.3045 8.99989C13.3045 6.6228 11.3774 4.69578 9.00027 4.69578C6.62311 4.69578 4.69605 6.6228 4.69605 8.99989C4.69605 11.377 6.62311 13.304 9.00027 13.304C10.1172 13.304 11.1348 12.8786 11.8998 12.1809C12.5428 12.8718 13.4601 13.304 14.4784 13.304C16.4233 13.304 18 11.7274 18 9.78246L18 8.99989C17.9997 4.81766 15.1184 1.18682 11.0456 0.236371C6.97276 -0.714082 2.78188 1.26636 0.930436 5.01639C-0.921012 8.76642 0.0549371 13.2977 3.286 15.9531C6.30957 18.438 10.5868 18.6797 13.8639 16.5728C14.4092 16.2222 14.5671 15.4959 14.2165 14.9506C13.8659 14.4053 13.1396 14.2474 12.5942 14.598C10.1732 16.1546 7.01135 15.9759 4.77668 14.1393C2.3885 12.1766 1.66715 8.82745 3.03561 6.05569C4.40407 3.28393 7.50167 1.82013 10.512 2.52263C13.5224 3.22514 15.652 5.90881 15.6522 8.99997L15.6522 9.78246C15.6522 10.4308 15.1267 10.9563 14.4784 10.9563ZM9.00156 7.04348C10.0821 7.04348 10.9581 7.9194 10.9581 8.99989C10.9581 10.0804 10.0821 10.9563 9.00156 10.9563C7.92101 10.9563 7.04504 10.0804 7.04504 8.99989C7.04504 7.9194 7.92101 7.04348 9.00156 7.04348Z" id="Shape" fill="#9F9F9F" fill-rule="evenodd" stroke="none" />
  </g>
</svg>