<?xml version="1.0" encoding="utf-8"?>
<svg width="16.247238px" height="17.958252px" viewBox="0 0 16.247238 17.958252" version="1.1" xmlns:xlink="http://www.w3.org/1999/xlink" xmlns="http://www.w3.org/2000/svg">
  <defs>
    <path d="M150.415 185.006L155.83 185.006L155.83 183.054C155.83 181.545 154.618 180.322 153.123 180.322C151.627 180.322 150.415 181.545 150.415 183.054L150.415 185.006ZM158.151 185.006L158.539 185.006C160.035 185.006 161.247 186.229 161.247 187.739L161.247 193.204C161.247 194.714 160.035 195.937 158.539 195.937L147.708 195.937C146.212 195.937 145 194.714 145 193.204L145 187.739C145 186.229 146.212 185.006 147.708 185.006L148.094 185.006L148.094 183.054C148.094 180.251 150.345 177.979 153.123 177.979C155.9 177.979 158.151 180.251 158.151 183.054L158.151 185.006Z" id="path_1" />
    <clipPath id="clip_1">
      <use xlink:href="#path_1" clip-rule="evenodd" fill-rule="evenodd" />
    </clipPath>
  </defs>
  <path d="M150.415 185.006L155.83 185.006L155.83 183.054C155.83 181.545 154.618 180.322 153.123 180.322C151.627 180.322 150.415 181.545 150.415 183.054L150.415 185.006ZM158.151 185.006L158.539 185.006C160.035 185.006 161.247 186.229 161.247 187.739L161.247 193.204C161.247 194.714 160.035 195.937 158.539 195.937L147.708 195.937C146.212 195.937 145 194.714 145 193.204L145 187.739C145 186.229 146.212 185.006 147.708 185.006L148.094 185.006L148.094 183.054C148.094 180.251 150.345 177.979 153.123 177.979C155.9 177.979 158.151 180.251 158.151 183.054L158.151 185.006Z" id="Shape" fill="#9F9F9F" fill-rule="evenodd" stroke="none" />
</svg>